<?xml version="1.0" encoding="UTF-8" standalone="no"?>
<!-- Created with Inkscape (http://www.inkscape.org/) -->

<svg
   xmlns:dc="http://purl.org/dc/elements/1.1/"
   xmlns:cc="http://creativecommons.org/ns#"
   xmlns:rdf="http://www.w3.org/1999/02/22-rdf-syntax-ns#"
   xmlns:svg="http://www.w3.org/2000/svg"
   xmlns="http://www.w3.org/2000/svg"
   xmlns:sodipodi="http://sodipodi.sourceforge.net/DTD/sodipodi-0.dtd"
   xmlns:inkscape="http://www.inkscape.org/namespaces/inkscape"
   width="512"
   height="512"
   id="svg2"
   version="1.1"
   inkscape:version="0.91 r13725"
   sodipodi:docname="guide-001.svg">
  <defs
     id="defs4" />
  <sodipodi:namedview
     id="base"
     pagecolor="#000000"
     bordercolor="#666666"
     borderopacity="1.0"
     inkscape:pageopacity="0"
     inkscape:pageshadow="2"
     inkscape:zoom="0.98994949"
     inkscape:cx="186.29834"
     inkscape:cy="262.85411"
     inkscape:document-units="px"
     inkscape:current-layer="layer1"
     showgrid="false"
     inkscape:window-width="1912"
     inkscape:window-height="954"
     inkscape:window-x="0"
     inkscape:window-y="25"
     inkscape:window-maximized="1"
     showguides="true"
     inkscape:guide-bbox="true">
    <sodipodi:guide
       orientation="1,0"
       position="256,256"
       id="guide7267" />
    <inkscape:grid
       type="xygrid"
       id="grid7269" />
    <sodipodi:guide
       orientation="0,1"
       position="256,256"
       id="guide7271" />
    <sodipodi:guide
       orientation="0.70710678,-0.70710678"
       position="256,256"
       id="guide8162" />
    <sodipodi:guide
       orientation="-0.70710678,-0.70710678"
       position="256,256"
       id="guide8166" />
    <sodipodi:guide
       orientation="1,0"
       position="32,0"
       id="guide4603" />
    <sodipodi:guide
       orientation="1,0"
       position="480,0"
       id="guide4605" />
    <sodipodi:guide
       orientation="0,1"
       position="0,480"
       id="guide5200" />
    <sodipodi:guide
       orientation="0,1"
       position="0,32"
       id="guide5202" />
    <sodipodi:guide
       orientation="1,0"
       position="128,0"
       id="guide5278" />
    <sodipodi:guide
       orientation="1,0"
       position="384,0"
       id="guide5280" />
    <sodipodi:guide
       orientation="0,1"
       position="0,384"
       id="guide5282" />
    <sodipodi:guide
       orientation="0,1"
       position="0,128"
       id="guide5284" />
  </sodipodi:namedview>
  <metadata
     id="metadata7">
    <rdf:RDF>
      <cc:Work
         rdf:about="">
        <dc:format>image/svg+xml</dc:format>
        <dc:type
           rdf:resource="http://purl.org/dc/dcmitype/StillImage" />
        <dc:title></dc:title>
      </cc:Work>
    </rdf:RDF>
  </metadata>
  <g
     inkscape:label="Layer 1"
     inkscape:groupmode="layer"
     id="layer1"
     transform="translate(0,-540.36218)">
    <path
       id="path3661"
       d="m 383.42854,667.54421 q 0,3.69769 -2.70215,6.39991 l -36.40819,36.40812 q -2.70215,2.70216 -6.39985,2.70216 -3.69769,0 -6.39991,-2.70216 -2.70215,-2.70215 -2.70215,-6.39984 l 0,-18.20413 -54.61219,0 0,54.61225 18.20406,0 q 3.6977,0 6.39985,2.70216 2.70215,2.70221 2.70215,6.39991 0,3.69769 -2.70215,6.39984 l -36.40813,36.40819 q -2.70221,2.70216 -6.39991,2.70216 -3.69769,0 -6.39984,-2.70216 l -36.4082,-36.40819 q -2.70215,-2.70215 -2.70215,-6.39984 0,-3.6977 2.70215,-6.39991 2.70222,-2.70216 6.39991,-2.70216 l 18.20407,0 0,-54.61225 -54.61226,0 0,18.20413 q 0,3.69769 -2.70215,6.39984 -2.70215,2.70216 -6.39985,2.70216 -3.69775,0 -6.39991,-2.70216 l -36.40812,-36.40812 q -2.70216,-2.70222 -2.70216,-6.39991 0,-3.6977 2.70216,-6.39985 l 36.40812,-36.40819 q 2.70216,-2.70215 6.39991,-2.70215 3.6977,0 6.39985,2.70215 2.70215,2.70222 2.70215,6.39991 l 0,18.20406 54.61226,0 0,-54.61225 -18.20407,0 q -3.69769,0 -6.39991,-2.70215 -2.70215,-2.70215 -2.70215,-6.39991 0,-3.69769 2.70215,-6.39985 l 36.4082,-36.40812 q 2.70215,-2.70222 6.39984,-2.70222 3.6977,0 6.39991,2.70222 l 36.40813,36.40812 q 2.70215,2.70216 2.70215,6.39985 0,3.69776 -2.70215,6.39991 -2.70215,2.70215 -6.39985,2.70215 l -18.20406,0 0,54.61225 54.61219,0 0,-18.20406 q 0,-3.69769 2.70215,-6.39991 2.70222,-2.70215 6.39991,-2.70215 3.6977,0 6.39985,2.70215 l 36.40819,36.40819 q 2.70215,2.70215 2.70215,6.39985 z"
       inkscape:connector-curvature="0"
       style="fill:#ffffff" />
    <path
       id="path3721"
       d="m 468.36978,983.33691 q 0,-5.7563 -4.02942,-9.78568 l -29.93277,-29.93279 q -4.02939,-4.0294 -9.7857,-4.0294 -6.04412,0 -10.36134,4.60504 0.43172,0.43172 2.73424,2.66229 2.30251,2.23057 3.09401,3.09403 0.79149,0.86346 2.15862,2.73426 1.3671,1.87074 1.87078,3.66956 0.50369,1.7989 0.50369,3.95748 0,5.7563 -4.02942,9.78576 -4.0294,4.02938 -9.78571,4.02938 -2.15862,0 -3.95747,-0.50371 -1.79883,-0.50363 -3.66963,-1.87073 -1.8708,-1.36717 -2.73424,-2.15865 -0.86346,-0.79148 -3.09401,-3.09402 -2.23057,-2.30253 -2.66229,-2.73419 -4.74896,4.46111 -4.74896,10.50519 0,5.7563 4.02942,9.78576 l 29.64494,29.78881 q 3.88551,3.8855 9.78573,3.8855 5.75631,0 9.78571,-3.7416 l 21.1544,-21.01049 q 4.02942,-4.02938 4.02942,-9.6418 z M 367.20277,881.8821 q 0,-5.75631 -4.02942,-9.78571 l -29.64493,-29.78886 q -4.02945,-4.02943 -9.78576,-4.02943 -5.61234,0 -9.78568,3.88552 l -21.15441,21.01049 q -4.02939,4.02942 -4.02939,9.6418 0,5.7563 4.02939,9.78572 l 29.93275,29.93278 q 3.88549,3.8855 9.78576,3.8855 6.04407,0 10.3613,-4.46112 -0.43173,-0.43175 -2.73427,-2.66229 -2.30246,-2.23057 -3.09401,-3.09402 -0.79149,-0.86346 -2.15858,-2.73425 -1.3671,-1.87078 -1.87081,-3.66964 -0.50363,-1.79884 -0.50363,-3.95744 0,-5.75631 4.02938,-9.78573 4.02945,-4.0294 9.78576,-4.0294 2.15856,0 3.95741,0.50367 1.79885,0.50367 3.66963,1.8708 1.8708,1.36711 2.73427,2.1586 0.86344,0.79149 3.09401,3.09401 2.23055,2.30252 2.66229,2.73426 4.74894,-4.46114 4.74894,-10.50526 z m 128.79727,101.45481 q 0,17.26889 -12.23215,29.21329 l -21.1544,21.0105 q -11.94433,11.9443 -29.21324,11.9443 -17.41283,0 -29.35715,-12.2322 l -29.64495,-29.7888 q -11.94432,-11.94436 -11.94432,-29.21327 0,-17.70057 12.66386,-30.07665 l -12.66386,-12.66386 q -12.37607,12.66386 -29.93275,12.66386 -17.26899,0 -29.35721,-12.08824 l -29.93275,-29.93277 q -12.08822,-12.08823 -12.08822,-29.35716 0,-17.2689 12.23218,-29.21323 l 21.15434,-21.01051 q 11.94433,-11.94432 29.21324,-11.94432 17.41287,0 29.35716,12.23214 l 29.64497,29.78887 q 11.94433,11.94433 11.94433,29.21324 0,17.70062 -12.66387,30.07669 l 12.66387,12.66387 q 12.37604,-12.66387 29.93277,-12.66387 17.2689,0 29.35713,12.08822 l 29.93277,29.93277 q 12.08825,12.08822 12.08825,29.35713 z"
       inkscape:connector-curvature="0"
       style="fill:#ffffff" />
    <path
       id="path3781"
       d="m 253.71425,1004.6479 0,16.5715 q 0,3.3661 -2.45981,5.8258 -2.45983,2.4599 -5.82591,2.4599 l -182.285684,0 q -3.366073,0 -5.825882,-2.4599 -2.459833,-2.4597 -2.459833,-5.8258 l 0,-16.5715 q 0,-3.366 2.459833,-5.82584 2.459809,-2.45984 5.825882,-2.45984 l 182.285684,0 q 3.36608,0 5.82591,2.45984 2.45981,2.45984 2.45981,5.82584 z m 0,-66.28565 0,16.5714 q 0,3.3661 -2.45981,5.82591 -2.45983,2.45981 -5.82591,2.45981 l -182.285684,0 q -3.366073,0 -5.825882,-2.45981 -2.459833,-2.45981 -2.459833,-5.82591 l 0,-16.5714 q 0,-3.36607 2.459833,-5.82591 2.459809,-2.45981 5.825882,-2.45981 l 182.285684,0 q 3.36608,0 5.82591,2.45981 2.45981,2.45984 2.45981,5.82591 z m 0,-66.28572 0,16.5714 q 0,3.3661 -2.45981,5.82591 -2.45983,2.45983 -5.82591,2.45983 l -182.285684,0 q -3.366073,0 -5.825882,-2.45983 -2.459833,-2.45981 -2.459833,-5.82591 l 0,-16.5714 q 0,-3.36607 2.459833,-5.8259 2.459809,-2.45981 5.825882,-2.45981 l 182.285684,0 q 3.36608,0 5.82591,2.45981 2.45981,2.45983 2.45981,5.8259 z"
       inkscape:connector-curvature="0"
       style="fill:#ffffff" />
    <path
       style="fill:none;fill-rule:evenodd;stroke:#ffffff;stroke-width:3;stroke-linecap:butt;stroke-linejoin:miter;stroke-opacity:1;stroke-miterlimit:4;stroke-dasharray:none"
       d="m 0,796.36218 514.16765,0"
       id="path4590"
       inkscape:connector-curvature="0" />
  </g>
</svg>
