<?xml version="1.0" encoding="UTF-8" standalone="no"?>
<!-- Created with Inkscape (http://www.inkscape.org/) -->

<svg
   xmlns:dc="http://purl.org/dc/elements/1.1/"
   xmlns:cc="http://creativecommons.org/ns#"
   xmlns:rdf="http://www.w3.org/1999/02/22-rdf-syntax-ns#"
   xmlns:svg="http://www.w3.org/2000/svg"
   xmlns="http://www.w3.org/2000/svg"
   xmlns:sodipodi="http://sodipodi.sourceforge.net/DTD/sodipodi-0.dtd"
   xmlns:inkscape="http://www.inkscape.org/namespaces/inkscape"
   width="512"
   height="512"
   id="svg2"
   version="1.1"
   inkscape:version="0.91 r13725"
   sodipodi:docname="guide-002.svg"
   inkscape:export-filename="/c/public/sortable_list/web/img/guide.png"
   inkscape:export-xdpi="180"
   inkscape:export-ydpi="180">
  <defs
     id="defs4" />
  <sodipodi:namedview
     id="base"
     pagecolor="#000000"
     bordercolor="#666666"
     borderopacity="1.0"
     inkscape:pageopacity="0"
     inkscape:pageshadow="2"
     inkscape:zoom="0.98994949"
     inkscape:cx="177.20697"
     inkscape:cy="262.85411"
     inkscape:document-units="px"
     inkscape:current-layer="layer1"
     showgrid="false"
     inkscape:window-width="1912"
     inkscape:window-height="954"
     inkscape:window-x="0"
     inkscape:window-y="25"
     inkscape:window-maximized="1"
     showguides="true"
     inkscape:guide-bbox="true">
    <sodipodi:guide
       orientation="1,0"
       position="256,256"
       id="guide7267" />
    <inkscape:grid
       type="xygrid"
       id="grid7269" />
    <sodipodi:guide
       orientation="0,1"
       position="256,256"
       id="guide7271" />
    <sodipodi:guide
       orientation="0.70710678,-0.70710678"
       position="256,256"
       id="guide8162" />
    <sodipodi:guide
       orientation="-0.70710678,-0.70710678"
       position="256,256"
       id="guide8166" />
    <sodipodi:guide
       orientation="1,0"
       position="32,0"
       id="guide4603" />
    <sodipodi:guide
       orientation="1,0"
       position="480,0"
       id="guide4605" />
    <sodipodi:guide
       orientation="0,1"
       position="0,480"
       id="guide5200" />
    <sodipodi:guide
       orientation="0,1"
       position="0,32"
       id="guide5202" />
    <sodipodi:guide
       orientation="1,0"
       position="128,0"
       id="guide5278" />
    <sodipodi:guide
       orientation="1,0"
       position="384,0"
       id="guide5280" />
    <sodipodi:guide
       orientation="0,1"
       position="0,384"
       id="guide5282" />
    <sodipodi:guide
       orientation="0,1"
       position="0,128"
       id="guide5284" />
  </sodipodi:namedview>
  <metadata
     id="metadata7">
    <rdf:RDF>
      <cc:Work
         rdf:about="">
        <dc:format>image/svg+xml</dc:format>
        <dc:type
           rdf:resource="http://purl.org/dc/dcmitype/StillImage" />
        <dc:title></dc:title>
      </cc:Work>
    </rdf:RDF>
  </metadata>
  <g
     inkscape:label="Layer 1"
     inkscape:groupmode="layer"
     id="layer1"
     transform="translate(0,-540.36218)">
    <path
       id="path3661"
       d="m 351.10368,668.04928 q 0,2.74504 -2.00598,4.75108 l -27.0282,27.02814 q -2.00598,2.00599 -4.75103,2.00599 -2.74504,0 -4.75107,-2.00599 -2.00599,-2.00598 -2.00599,-4.75102 l 0,-13.51413 -40.54222,0 0,40.54227 13.51407,0 q 2.74505,0 4.75103,2.00599 2.00599,2.00603 2.00599,4.75108 0,2.74503 -2.00599,4.75102 l -27.02815,27.02819 q -2.00603,2.00599 -4.75107,2.00599 -2.74504,0 -4.75103,-2.00599 l -27.0282,-27.02819 q -2.00598,-2.00599 -2.00598,-4.75102 0,-2.74505 2.00598,-4.75108 2.00604,-2.00599 4.75108,-2.00599 l 13.51408,0 0,-40.54227 -40.54228,0 0,13.51413 q 0,2.74504 -2.00599,4.75102 -2.00598,2.00599 -4.75103,2.00599 -2.74508,0 -4.75107,-2.00599 l -27.02814,-27.02814 q -2.006,-2.00604 -2.006,-4.75108 0,-2.74504 2.006,-4.75103 l 27.02814,-27.02819 q 2.00599,-2.00599 4.75107,-2.00599 2.74505,0 4.75103,2.00599 2.00599,2.00603 2.00599,4.75107 l 0,13.51407 40.54228,0 0,-40.54226 -13.51408,0 q -2.74504,0 -4.75108,-2.00599 -2.00598,-2.00598 -2.00598,-4.75107 0,-2.74504 2.00598,-4.75103 l 27.0282,-27.02814 q 2.00599,-2.00604 4.75103,-2.00604 2.74504,0 4.75107,2.00604 l 27.02815,27.02814 q 2.00599,2.00599 2.00599,4.75103 0,2.74509 -2.00599,4.75107 -2.00598,2.00599 -4.75103,2.00599 l -13.51407,0 0,40.54226 40.54222,0 0,-13.51407 q 0,-2.74504 2.00599,-4.75107 2.00603,-2.00599 4.75107,-2.00599 2.74505,0 4.75103,2.00599 l 27.0282,27.02819 q 2.00598,2.00599 2.00598,4.75103 z"
       inkscape:connector-curvature="0"
       style="fill:#ffffff" />
    <path
       id="path3721"
       d="m 440.6203,959.5389 q 0,-3.75085 -2.62561,-6.37644 l -19.50443,-19.50442 q -2.62558,-2.62559 -6.37644,-2.62559 -3.93839,0 -6.75153,3.00068 0.28131,0.28131 1.78165,1.73477 1.50034,1.45345 2.01609,2.01609 0.51574,0.56264 1.40657,1.78167 0.89081,1.21899 1.21901,2.39111 0.32821,1.17218 0.32821,2.57873 0,3.75085 -2.6256,6.3765 -2.62559,2.62553 -6.37645,2.62553 -1.40657,0 -2.57872,-0.32822 -1.17213,-0.32815 -2.39116,-1.21896 -1.21902,-0.89088 -1.78165,-1.40663 -0.56264,-0.51568 -2.01608,-2.01607 -1.45346,-1.50033 -1.73477,-1.78163 -3.09446,2.90689 -3.09446,6.84527 0,3.75085 2.6256,6.37651 l 19.31688,19.41062 q 2.53183,2.53182 6.37646,2.53182 3.75086,0 6.37645,-2.43806 l 13.78437,-13.69061 q 2.62561,-2.62559 2.62561,-6.28267 z m -65.92123,-66.10876 q 0,-3.75085 -2.62561,-6.37644 l -19.31687,-19.41066 q -2.62562,-2.62561 -6.37648,-2.62561 -3.65704,0 -6.37642,2.53184 l -13.78438,13.6906 q -2.62559,2.6256 -2.62559,6.28267 0,3.75085 2.62559,6.37646 l 19.50441,19.50443 q 2.53182,2.53183 6.37648,2.53183 3.93837,0 6.75151,-2.9069 -0.28132,-0.28134 -1.78167,-1.73477 -1.50031,-1.45346 -2.01609,-2.01609 -0.51574,-0.56264 -1.40654,-1.78166 -0.89082,-1.21902 -1.21904,-2.39117 -0.32817,-1.17214 -0.32817,-2.5787 0,-3.75085 2.62558,-6.37646 2.62562,-2.62559 6.37648,-2.62559 1.40653,0 2.57868,0.3282 1.17214,0.32819 2.39116,1.21903 1.21903,0.89082 1.78167,1.40656 0.56262,0.51574 2.01608,2.01608 1.45344,1.50034 1.73477,1.78167 3.09445,-2.90692 3.09445,-6.84532 z m 83.92532,66.10876 q 0,11.25255 -7.97056,19.03562 l -13.78438,13.69061 q -7.78302,7.78297 -19.03558,7.78297 -11.34634,0 -19.12935,-7.97057 l -19.31689,-19.41062 q -7.78301,-7.78307 -7.78301,-19.03562 0,-11.53381 8.25187,-19.59816 l -8.25187,-8.25187 q -8.06435,8.25187 -19.50442,8.25187 -11.25261,0 -19.12939,-7.8768 L 313.46639,906.6519 q -7.87678,-7.87678 -7.87678,-19.12936 0,-11.25255 7.97059,-19.03557 l 13.78433,-13.69062 q 7.78303,-7.78301 19.03558,-7.78301 11.34637,0 19.12936,7.97056 l 19.3169,19.41066 q 7.78302,7.78303 7.78302,19.03558 0,11.53387 -8.25188,19.59822 l 8.25188,8.25187 q 8.06433,-8.25187 19.50443,-8.25187 11.25256,0 19.12934,7.87678 l 19.50443,19.50443 q 7.8768,7.87678 7.8768,19.12933 z"
       inkscape:connector-curvature="0"
       style="fill:#ffffff" />
    <path
       id="path3781"
       d="m 214.31831,978.00513 0,14.80379 q 0,3.007 -2.19741,5.2043 -2.19743,2.19748 -5.20443,2.19748 l -162.840254,0 q -3.006995,0 -5.204402,-2.19748 -2.197429,-2.1973 -2.197429,-5.2043 l 0,-14.80379 q 0,-3.00693 2.197429,-5.20436 2.197407,-2.19744 5.204402,-2.19744 l 162.840254,0 q 3.007,0 5.20443,2.19744 2.19741,2.19743 2.19741,5.20436 z m 0,-59.21459 0,14.80364 q 0,3.00702 -2.19741,5.20443 -2.19743,2.19741 -5.20443,2.19741 l -162.840254,0 q -3.006995,0 -5.204402,-2.19741 -2.197429,-2.19741 -2.197429,-5.20443 l 0,-14.80364 q 0,-3.00699 2.197429,-5.20442 2.197407,-2.19741 5.204402,-2.19741 l 162.840254,0 q 3.007,0 5.20443,2.19741 2.19741,2.19743 2.19741,5.20442 z m 0,-59.21465 0,14.80364 q 0,3.00702 -2.19741,5.20443 -2.19743,2.19742 -5.20443,2.19742 l -162.840254,0 q -3.006995,0 -5.204402,-2.19742 -2.197429,-2.19741 -2.197429,-5.20443 l 0,-14.80364 q 0,-3.00699 2.197429,-5.20442 2.197407,-2.1974 5.204402,-2.1974 l 162.840254,0 q 3.007,0 5.20443,2.1974 2.19741,2.19743 2.19741,5.20442 z"
       inkscape:connector-curvature="0"
       style="fill:#ffffff" />
    <path
       style="fill:none;fill-rule:evenodd;stroke:#ffffff;stroke-width:8;stroke-linecap:butt;stroke-linejoin:miter;stroke-miterlimit:4;stroke-dasharray:none;stroke-opacity:1"
       d="m 0,796.36218 514.16765,0"
       id="path4590"
       inkscape:connector-curvature="0" />
    <path
       style="fill:none;fill-rule:evenodd;stroke:#ffffff;stroke-width:8;stroke-linecap:butt;stroke-linejoin:miter;stroke-opacity:1;stroke-miterlimit:4;stroke-dasharray:none"
       d="m 256,1053.3723 0,-257.01012"
       id="path4611"
       inkscape:connector-curvature="0" />
  </g>
</svg>
